<svg width="256" height="256" viewBox="0 0 256 256" fill="none" xmlns="http://www.w3.org/2000/svg">
<path d="M56 184C56 188.243 57.6857 192.313 60.6863 195.314C63.6869 198.314 67.7565 200 72 200C76.2435 200 80.3131 198.314 83.3137 195.314C86.3143 192.313 88 188.243 88 184C88 179.757 86.3143 175.687 83.3137 172.686C80.3131 169.686 76.2435 168 72 168C67.7565 168 63.6869 169.686 60.6863 172.686C57.6857 175.687 56 179.757 56 184Z" stroke="#27187D" stroke-width="12" stroke-linecap="round" stroke-linejoin="round"/>
<path d="M184 88C188.243 88 192.313 86.3143 195.314 83.3137C198.314 80.3131 200 76.2435 200 72C200 67.7565 198.314 63.6869 195.314 60.6863C192.313 57.6857 188.243 56 184 56C179.757 56 175.687 57.6857 172.686 60.6863C169.686 63.6869 168 67.7565 168 72C168 76.2435 169.686 80.3131 172.686 83.3137C175.687 86.3143 179.757 88 184 88Z" stroke="#27187D" stroke-width="12" stroke-linecap="round" stroke-linejoin="round"/>
<path d="M120 184H164C171.426 184 178.548 181.05 183.799 175.799C189.05 170.548 192 163.426 192 156C192 148.574 189.05 141.452 183.799 136.201C178.548 130.95 171.426 128 164 128H100C92.5739 128 85.452 125.05 80.201 119.799C74.95 114.548 72 107.426 72 100C72 92.5739 74.95 85.452 80.201 80.201C85.452 74.95 92.5739 72 100 72H136" stroke="#27187D" stroke-width="12" stroke-linecap="round" stroke-linejoin="round"/>
</svg>
