<svg width="256" height="256" viewBox="0 0 256 256" fill="none" xmlns="http://www.w3.org/2000/svg">
<path d="M41 196C41 201.039 43.0018 205.872 46.565 209.435C50.1282 212.998 54.9609 215 60 215C65.0391 215 69.8718 212.998 73.435 209.435C76.9982 205.872 79 201.039 79 196C79 190.961 76.9982 186.128 73.435 182.565C69.8718 179.002 65.0391 177 60 177C54.9609 177 50.1282 179.002 46.565 182.565C43.0018 186.128 41 190.961 41 196Z" stroke="white" stroke-width="12" stroke-linecap="round" stroke-linejoin="round"/>
<path d="M196 79C201.039 79 205.872 76.9982 209.435 73.435C212.998 69.8718 215 65.0391 215 60C215 54.9609 212.998 50.1282 209.435 46.565C205.872 43.0018 201.039 41 196 41C190.961 41 186.128 43.0018 182.565 46.565C179.002 50.1282 177 54.9609 177 60C177 65.0391 179.002 69.8718 182.565 73.435C186.128 76.9982 190.961 79 196 79Z" stroke="white" stroke-width="12" stroke-linecap="round" stroke-linejoin="round"/>
<path d="M119 195H172.167C181.14 195 189.745 191.471 196.09 185.188C202.435 178.906 206 170.385 206 161.5C206 152.615 202.435 144.094 196.09 137.812C189.745 131.529 181.14 128 172.167 128H94.8333C85.8602 128 77.2545 124.471 70.9096 118.188C64.5646 111.906 61 103.385 61 94.5C61 85.6152 64.5646 77.0944 70.9096 70.8119C77.2545 64.5295 85.8602 61 94.8333 61H138.333" stroke="white" stroke-width="12" stroke-linecap="round" stroke-linejoin="round"/>
</svg>
